<svg width="42" height="41" viewBox="0 0 42 41" fill="none" xmlns="http://www.w3.org/2000/svg">
<rect x="34.4053" y="35.665" width="6.41267" height="2.87525" fill="#71C6A7"/>
<path d="M37.238 4.504L34.6237 10.2863C34.4797 10.6047 34.4053 10.9502 34.4053 11.2997V37.6191C34.4053 38.5248 35.1395 39.259 36.0452 39.259H39.178C40.0837 39.259 40.8179 38.5248 40.8179 37.6191V11.2997C40.8179 10.9502 40.7435 10.6047 40.5995 10.2863L37.9852 4.504C37.8399 4.18256 37.3834 4.18256 37.238 4.504Z" stroke="#273C73" stroke-width="1.63993"/>
<path d="M34.4053 11.2256H38.0124H40.8179" stroke="#273C73" stroke-width="1.63993"/>
<path d="M34.4053 35.665H40.8179" stroke="#273C73" stroke-width="1.63993"/>
<path d="M19.5392 8.67098L19.229 3.50303C19.2 3.01915 19.5948 2.61584 20.0792 2.63455L21.0373 2.67157C21.2409 2.67944 21.4342 2.76282 21.5797 2.90547L28.6884 9.8762C29.1136 10.2932 28.9665 11.0101 28.4114 11.2259L26.734 11.8781C26.622 11.9216 26.5018 11.94 26.382 11.932L21.9222 11.6329C21.6817 11.6167 21.4606 11.4957 21.3174 11.3018L19.6981 9.10896C19.6039 8.9814 19.5487 8.82927 19.5392 8.67098Z" fill="#71C6A7"/>
<path d="M1.54004 7.62062V33.6975C1.54004 36.8675 4.10981 39.4373 7.2798 39.4373H24.0614C27.2314 39.4373 29.8012 36.8675 29.8012 33.6975V12.6021C29.8012 10.9747 29.1103 9.42369 27.9004 8.33517L22.3635 3.35364C21.3096 2.40548 19.9421 1.88086 18.5245 1.88086H7.2798C4.10982 1.88086 1.54004 4.45064 1.54004 7.62062Z" stroke="#273C73" stroke-width="2.04991"/>
<path d="M5.54736 22.3673C5.54736 21.7718 6.19335 21.2891 6.99021 21.2891H23.3425C24.1394 21.2891 24.7854 21.7718 24.7854 22.3673C24.7854 22.9628 24.1394 23.4455 23.3425 23.4455H6.99021C6.19335 23.4455 5.54736 22.9628 5.54736 22.3673Z" fill="#71C6A7"/>
<path d="M5.54736 17.3351C5.54736 16.7396 6.19335 16.2568 6.99021 16.2568H23.3425C24.1394 16.2568 24.7854 16.7396 24.7854 17.3351C24.7854 17.9305 24.1394 18.4133 23.3425 18.4133H6.99021C6.19335 18.4133 5.54736 17.9305 5.54736 17.3351Z" fill="#71C6A7"/>
<path d="M5.54736 27.3985C5.54736 26.803 6.19335 26.3203 6.99021 26.3203H23.3425C24.1394 26.3203 24.7854 26.803 24.7854 27.3985C24.7854 27.994 24.1394 28.4768 23.3425 28.4768H6.99021C6.19335 28.4768 5.54736 27.994 5.54736 27.3985Z" fill="#71C6A7"/>
<path d="M5.54736 32.4298C5.54736 31.8343 6.20104 31.3516 7.00739 31.3516H17.7143C18.5206 31.3516 19.1743 31.8343 19.1743 32.4298C19.1743 33.0253 18.5206 33.508 17.7143 33.508H7.00739C6.20104 33.508 5.54736 33.0253 5.54736 32.4298Z" fill="#71C6A7"/>
<path d="M19.0752 2.0332V8.37144C19.0752 10.1829 20.5436 11.6513 22.3551 11.6513H29.1198" stroke="#273C73" stroke-width="2.04991" stroke-linecap="round"/>
</svg>
