<svg width="41" height="46" viewBox="0 0 41 46" fill="none" xmlns="http://www.w3.org/2000/svg">
<line y1="-1.22995" x2="7.05613" y2="-1.22995" transform="matrix(0.580394 0.814336 -0.81313 0.582082 18.5596 38.6299)" stroke="#273C73" stroke-width="2.4599"/>
<line y1="-1.22995" x2="10.1557" y2="-1.22995" transform="matrix(0.658385 0.752681 -0.751248 0.66002 6.95898 25.2393)" stroke="#273C73" stroke-width="2.4599"/>
<line y1="-1.22995" x2="10.0965" y2="-1.22995" transform="matrix(0.766697 -0.642009 0.640353 0.768081 7.54199 19.665)" stroke="#273C73" stroke-width="2.4599"/>
<line x1="8.32321" y1="43.9663" x2="32.0734" y2="43.9663" stroke="#273C73" stroke-width="2.4599" stroke-linecap="round"/>
<line y1="-1.22995" x2="6.42535" y2="-1.22995" transform="matrix(0.998964 0.045507 -0.0453083 0.998973 21.0166 11.2842)" stroke="#273C73" stroke-width="2.4599"/>
<ellipse cx="6.30228" cy="20.6343" rx="5.76224" ry="5.77489" fill="#71C6A7"/>
<path d="M21.3706 9.8723C21.3706 11.9005 19.7308 13.54 17.7136 13.54C15.6965 13.54 14.0566 11.9005 14.0566 9.8723C14.0566 7.84412 15.6965 6.20456 17.7136 6.20456C19.7308 6.20456 21.3706 7.84412 21.3706 9.8723Z" stroke="#71C6A7" stroke-width="2.4599"/>
<path d="M20.5503 34.4983C20.5503 36.5265 18.9105 38.166 16.8933 38.166C14.8761 38.166 13.2363 36.5265 13.2363 34.4983C13.2363 32.4701 14.8761 30.8305 16.8933 30.8305C18.9105 30.8305 20.5503 32.4701 20.5503 34.4983Z" stroke="#71C6A7" stroke-width="2.4599"/>
<path d="M39.6894 6.81974L31.9554 2.51172L27.4355 10.0127L31.9554 17.7165L39.6894 13.5605" stroke="#273C73" stroke-width="2.4599" stroke-linecap="round"/>
</svg>
