<svg width="42" height="41" viewBox="0 0 42 41" fill="none" xmlns="http://www.w3.org/2000/svg">
<line x1="18.1216" y1="38.4097" x2="18.1216" y2="31.1743" stroke="#71C6A7" stroke-width="2.4599" stroke-linecap="round"/>
<line x1="24.8941" y1="38.2476" x2="24.8941" y2="31.0122" stroke="#71C6A7" stroke-width="2.4599" stroke-linecap="round"/>
<path d="M17.3105 11.9752L3.54717 19.9065C2.82192 20.3244 2.375 21.0978 2.375 21.9348C2.375 23.2277 3.42311 24.2758 4.71602 24.2758H37.5922C38.9507 24.2758 40.0521 23.1745 40.0521 21.8159V11.415C40.0521 9.33853 37.6381 8.19619 36.0324 9.51282L28.0697 16.0421C27.1752 16.7755 25.8907 16.7867 24.9836 16.069L20.065 12.1774C19.2749 11.5523 18.1834 11.4721 17.3105 11.9752Z" fill="#71C6A7"/>
<rect x="1.96676" y="2.11081" width="38.4934" height="28.5649" rx="3.68984" stroke="#273C73" stroke-width="2.4599"/>
<line x1="10.3442" y1="38.814" x2="33.3592" y2="38.814" stroke="#273C73" stroke-width="2.4599" stroke-linecap="round"/>
<path d="M2.375 24.6855H39.3781" stroke="#273C73" stroke-width="2.4599"/>
</svg>
