<svg width="45" height="45" viewBox="0 0 45 45" fill="none" xmlns="http://www.w3.org/2000/svg">
<rect x="6.78219" y="5.39401" width="36.8553" height="37.7625" rx="8.60964" stroke="#273C73" stroke-width="2.4599"/>
<rect x="14.5625" y="27.9697" width="2.4572" height="9.02952" rx="1.2286" fill="#71C6A7"/>
<rect x="20.2954" y="23.8652" width="2.4572" height="13.1338" rx="1.2286" fill="#71C6A7"/>
<rect x="26.8486" y="18.9404" width="2.4572" height="18.059" rx="1.2286" fill="#71C6A7"/>
<rect x="33.4014" y="14.0146" width="2.4572" height="22.9842" rx="1.2286" fill="#71C6A7"/>
<ellipse cx="9.64841" cy="9.91038" rx="9.00973" ry="9.02952" fill="#71C6A7"/>
<path fill-rule="evenodd" clip-rule="evenodd" d="M4.14308 11.854L9.09796 6.85738C9.40202 6.55076 9.89499 6.55076 10.199 6.85738L15.1539 11.854C15.458 12.1606 15.458 12.6578 15.1539 12.9644C14.8499 13.271 14.3569 13.271 14.0528 12.9644L9.64851 8.52292L5.24417 12.9644C4.94011 13.271 4.44714 13.271 4.14308 12.9644C3.83902 12.6578 3.83902 12.1606 4.14308 11.854Z" fill="#273C73"/>
</svg>
