<svg width="46" height="49" viewBox="0 0 46 49" fill="none" xmlns="http://www.w3.org/2000/svg">
<path d="M30.4219 25.2233C30.4219 29.1492 27.2471 32.3271 23.3364 32.3271C19.4258 32.3271 16.2509 29.1492 16.2509 25.2233C16.2509 21.2975 19.4258 18.1196 23.3364 18.1196C27.2471 18.1196 30.4219 21.2975 30.4219 25.2233Z" stroke="#7885A8" stroke-width="2.4599"/>
<line y1="-1.22995" x2="16.2345" y2="-1.22995" transform="matrix(0.706331 0.707882 -0.706331 0.707882 6.46387 9.44629)" stroke="#7885A8" stroke-width="2.4599"/>
<line y1="-1.22995" x2="6.58465" y2="-1.22995" transform="matrix(-0.409283 0.912407 -0.911735 -0.410779 18.8965 30.9668)" stroke="#7885A8" stroke-width="2.4599"/>
<line y1="-1.22995" x2="7.21835" y2="-1.22995" transform="matrix(0.804865 -0.593459 0.591772 0.806105 29.2295 23.2002)" stroke="#7885A8" stroke-width="2.4599"/>
<ellipse cx="8.01027" cy="8.24521" rx="7.3716" ry="7.38779" fill="#71C6A7"/>
<path d="M44.1083 14.637C44.1083 17.4904 41.8009 19.7989 38.9604 19.7989C36.1198 19.7989 33.8125 17.4904 33.8125 14.637C33.8125 11.7836 36.1198 9.47507 38.9604 9.47507C41.8009 9.47507 44.1083 11.7836 44.1083 14.637Z" stroke="#71C6A7" stroke-width="2.4599"/>
<path d="M20.3549 41.7258C20.3549 44.5792 18.0475 46.8878 15.207 46.8878C12.3664 46.8878 10.059 44.5792 10.059 41.7258C10.059 38.8725 12.3664 36.5639 15.207 36.5639C18.0475 36.5639 20.3549 38.8725 20.3549 41.7258Z" stroke="#71C6A7" stroke-width="2.4599"/>
</svg>
